Coordinates
version=1
nRows=4
nColumns=114
inDegrees=yes

Units are S.I. units (second, meters, Newtons, ...)
If the header above contains a line with 'inDegrees', this indicates whether rotational values are in degrees (yes) or radians (no).

endheader 
time	pelvis_tilt	pelvis_list	pelvis_rotation	pelvis_tx	pelvis_ty	pelvis_tz	hip_flexion_l	hip_adduction_l	hip_rotation_l	hip_flexion_r	hip_adduction_r	hip_rotation_r	knee_angle_l	knee_angle_r	ankle_angle_l	ankle_angle_r	subtalar_angle_l	subtalar_angle_r	mtp_angle_l	mtp_angle_r	lumbar_extension	lumbar_bending	lumbar_rotation	arm_flex_l	arm_add_l	arm_rot_l	arm_flex_r	arm_add_r	arm_rot_r	elbow_flex_l	elbow_flex_r	pro_sup_l	pro_sup_r	addbrev_l/activation	addlong_l/activation	addmagDist_l/activation	addmagIsch_l/activation	addmagMid_l/activation	addmagProx_l/activation	bflh_l/activation	bfsh_l/activation	edl_l/activation	ehl_l/activation	fdl_l/activation	fhl_l/activation	gaslat_l/activation	gasmed_l/activation	glmax1_l/activation	glmax2_l/activation	glmax3_l/activation	glmed1_l/activation	glmed2_l/activation	glmed3_l/activation	glmin1_l/activation	glmin2_l/activation	glmin3_l/activation	grac_l/activation	iliacus_l/activation	perbrev_l/activation	perlong_l/activation	piri_l/activation	psoas_l/activation	recfem_l/activation	sart_l/activation	semimem_l/activation	semiten_l/activation	soleus_l/activation	tfl_l/activation	tibant_l/activation	tibpost_l/activation	vasint_l/activation	vaslat_l/activation	vasmed_l/activation	addbrev_r/activation	addlong_r/activation	addmagDist_r/activation	addmagIsch_r/activation	addmagMid_r/activation	addmagProx_r/activation	bflh_r/activation	bfsh_r/activation	edl_r/activation	ehl_r/activation	fdl_r/activation	fhl_r/activation	gaslat_r/activation	gasmed_r/activation	glmax1_r/activation	glmax2_r/activation	glmax3_r/activation	glmed1_r/activation	glmed2_r/activation	glmed3_r/activation	glmin1_r/activation	glmin2_r/activation	glmin3_r/activation	grac_r/activation	iliacus_r/activation	perbrev_r/activation	perlong_r/activation	piri_r/activation	psoas_r/activation	recfem_r/activation	sart_r/activation	semimem_r/activation	semiten_r/activation	soleus_r/activation	tfl_r/activation	tibant_r/activation	tibpost_r/activation	vasint_r/activation	vaslat_r/activation	vasmed_r/activation	
          7.32000000	         10.60380643	          2.64034694	        -61.46176700	         -3.24081923	          0.98527091	          0.16972142	         37.81800253	        -21.18912667	          9.56671418	         40.40330195	        -16.14296242	         21.15122614	         40.61197040	         82.08635188	         -1.87497386	          7.52523590	        -29.84108429	        -34.81831730	          0.04343462	          0.04893457	          0.11643259	          3.15185194	         10.18938185	       -272.63204655	        -42.61385704	         78.74099435	       -294.46341171	        -29.63773092	        -50.30228829	         59.81329323	        195.51717103	         91.50003405	         92.88037718	          0.05411864	          0.03598234	          0.01048024	          0.01011199	          0.06182835	          0.16621890	          0.09015075	          0.07218259	          0.10497933	          0.03848567	          0.02511346	          0.01224197	          0.01004889	          0.02278097	          0.02358928	          0.10265073	          0.29655561	          0.01001071	          0.01001574	          0.01224989	          0.01004152	          0.01004763	          0.02033119	          0.08268431	          0.01009615	          0.07515805	          0.10079396	          0.05886706	          0.51541300	          0.38480628	          0.22348059	          0.01438431	          0.01507415	          0.01004136	          0.03440503	          0.09045031	          0.01038907	          0.01200954	          0.01199929	          0.01198938	          0.03208740	          0.03948269	          0.01934754	          0.01626327	          0.02558290	          0.04880644	          0.04113437	          0.03298625	          0.02218915	          0.01279684	          0.05204956	          0.03294560	          0.03578344	          0.03582549	          0.04801546	          0.14797281	          0.13159440	          0.02279953	          0.01465573	          0.02057008	          0.01602063	          0.01888000	          0.35007654	          0.01836975	          0.03334790	          0.05899580	          0.13121931	          0.17361187	          0.12284670	          0.37147999	          0.04305004	          0.01756425	          0.01706791	          0.02139005	          0.02801494	          0.07797149	          0.05625180	          0.02974132	          0.04840212	          0.02998738	
          7.33000000	         10.50708737	          3.89629018	        -59.21936125	         -3.20745020	          0.98319885	          0.16845367	         37.73310602	        -19.88387507	          9.48104170	         39.64181095	        -19.89329257	         20.70578420	         40.11955038	         80.93543434	         -2.56539825	          5.25410069	        -32.25815749	        -34.78643470	          0.03274949	          0.08090331	          3.79875591	          3.22026172	          6.92950031	       -281.17057354	        -41.79753341	         79.92500984	       -286.17101225	        -29.68373261	        -74.53121834	         56.62174101	        189.38477101	         90.68948969	         93.13069482	          0.05960970	          0.15265350	          0.01013712	          0.01005407	          0.05185808	          0.33103307	          0.08365397	          0.06019668	          0.08752696	          0.03243914	          0.02100345	          0.01452872	          0.01458680	          0.01899569	          0.01966058	          0.08554496	          0.24717441	          0.01000891	          0.01001334	          0.01021312	          0.01003366	          0.01004100	          0.01695487	          0.10917787	          0.01014472	          0.06268465	          0.08402640	          0.04908819	          0.49149134	          0.44284921	          0.30047435	          0.01199356	          0.01258137	          0.01065846	          0.02870331	          0.07860760	          0.01694818	          0.01007835	          0.01002474	          0.01005271	          0.02674622	          0.03290811	          0.01612707	          0.01355854	          0.02132285	          0.04068381	          0.03428036	          0.02750895	          0.25867875	          0.01086030	          0.04338309	          0.02745931	          0.02982147	          0.02985527	          0.04002167	          0.12331614	          0.10966534	          0.01901619	          0.01230392	          0.01718251	          0.01368147	          0.01746424	          0.69033319	          0.01531775	          0.26768541	          0.04917259	          0.10935297	          0.14474390	          0.29112858	          0.30957615	          0.11870616	          0.01463793	          0.01422732	          0.01782593	          0.05353758	          0.07529758	          0.04687801	          0.02479772	          0.04033918	          0.02499823	
          7.34000000	         10.04063309	          4.70684267	        -57.04434873	         -3.17423674	          0.98107218	          0.16705033	         37.35322418	        -19.26445447	          9.05882660	         38.18697832	        -23.01129135	         19.76809009	         38.96745114	         79.08798817	         -3.51777520	          3.52070775	        -34.00684252	        -34.90391595	          0.02673810	          0.11596381	          6.94648249	          3.59473248	          3.98818897	       -290.48111202	        -41.31799087	         79.15592593	       -278.60498475	        -31.47311804	        -84.19235548	         52.88974871	        180.13994835	         89.85205100	         92.92186531	          0.09094688	          0.12727321	          0.01013555	          0.01005450	          0.04461444	          0.28050225	          0.06971361	          0.05020230	          0.07764264	          0.02722617	          0.01760199	          0.01230057	          0.01217940	          0.01583571	          0.01638720	          0.07129016	          0.20601222	          0.01000917	          0.01001464	          0.01001615	          0.01003229	          0.01004156	          0.01414564	          0.09144900	          0.01012215	          0.05229215	          0.07013134	          0.04093600	          0.56388722	          0.44375050	          0.25233866	          0.01002085	          0.01051390	          0.01101686	          0.02396161	          0.07031991	          0.01418321	          0.01128901	          0.01065010	          0.01097779	          0.02229727	          0.02743233	          0.01344440	          0.01130948	          0.01777337	          0.03391877	          0.02856941	          0.02296111	          0.32285566	          0.05357825	          0.03616062	          0.02288707	          0.02485299	          0.02488003	          0.03335913	          0.10276849	          0.09139163	          0.01586390	          0.01039685	          0.01435891	          0.01187735	          0.01572284	          0.57528036	          0.01278066	          0.27754974	          0.04099037	          0.09113017	          0.12062801	          0.39171407	          0.25798385	          0.14384991	          0.01219974	          0.01186292	          0.01485558	          0.04738838	          0.07291921	          0.03907424	          0.02067138	          0.03361807	          0.02083626	
          7.35000000	          9.37809927	          4.90321610	        -55.03836984	         -3.14181966	          0.97893288	          0.16555926	         36.48747348	        -19.37058209	          8.22075632	         36.05923208	        -25.31819577	         18.56959035	         37.24595248	         76.90117142	         -4.52932272	          2.46866214	        -34.84558853	        -34.99935512	          0.03070656	          0.15230473	          9.25200930	          4.39757995	          0.77129970	       -300.58638685	        -43.06013618	         76.84957047	       -273.84165372	        -35.32115726	        -38.41517155	         50.66613397	        172.17512098	         88.53157613	         96.91953006	          0.12828457	          0.25665658	          0.01011235	          0.01004712	          0.05553641	          0.44671246	          0.05810543	          0.04188489	          0.07214162	          0.02514203	          0.01473692	          0.01034453	          0.01017345	          0.01320222	          0.01366019	          0.05941111	          0.17169508	          0.01000860	          0.01001530	          0.01002408	          0.01002824	          0.01004067	          0.01182061	          0.10808640	          0.01014826	          0.04997468	          0.05862561	          0.03413649	          0.71194160	          0.39254547	          0.28512309	          0.01001676	          0.01006532	          0.01002347	          0.02003121	          0.07093639	          0.01185276	          0.01684658	          0.01717075	          0.01701560	          0.01858977	          0.02286740	          0.01121114	          0.01002143	          0.01481609	          0.02828199	          0.02381290	          0.12331499	          0.41304379	          0.04883923	          0.03014097	          0.01907623	          0.02071264	          0.02073394	          0.02780739	          0.08564630	          0.07616458	          0.01323917	          0.01021545	          0.01203568	          0.01111181	          0.01596398	          0.47940376	          0.01069257	          0.23131159	          0.03416778	          0.07594499	          0.10055852	          0.32645119	          0.21498883	          0.27041788	          0.01016952	          0.01002090	          0.01238024	          0.03966249	          0.08923647	          0.03256307	          0.01723031	          0.02801640	          0.01736633	
